<?xml version="1.0" standalone="no"?><!DOCTYPE svg PUBLIC "-//W3C//DTD SVG 1.1//EN" "http://www.w3.org/Graphics/SVG/1.1/DTD/svg11.dtd"><svg t="1588471082346" class="icon" viewBox="0 0 1024 1024" version="1.1" xmlns="http://www.w3.org/2000/svg" p-id="1352" xmlns:xlink="http://www.w3.org/1999/xlink" width="16" height="16"><defs><style type="text/css"></style></defs><path d="M892.587 858.663l-115.394-115.394c-7.988-7.988-20.935-7.988-28.923 0-2.424 2.424-4.029 5.329-4.981 8.407-0.102 0.092-0.215 0.163-0.317 0.256-64.258 64.493-149.779 100.002-240.801 100.002-187.456 0-339.954-152.499-339.954-339.944s152.499-339.944 339.954-339.944c187.446 0 339.944 152.499 339.944 339.944 0 29.363-3.743 58.49-11.127 86.574-2.863 10.923 3.662 22.112 14.584 24.985 10.984 2.894 22.112-3.662 24.985-14.584 8.274-31.479 12.467-64.115 12.467-96.975 0-210.007-170.846-380.854-380.854-380.854s-380.874 170.857-380.874 380.863c0 210.007 170.857 380.854 380.863 380.854 98.407 0 191.015-37.156 262.084-104.676l99.419 99.419c3.999 3.999 9.225 5.993 14.462 5.993s10.463-1.994 14.462-5.993c7.987-7.998 7.987-20.935 0-28.933z" p-id="1353"></path><path d="M512 747.227c11.291 0 20.454-9.163 20.454-20.454v-194.318h194.318c11.291 0 20.454-9.163 20.454-20.454s-9.163-20.454-20.454-20.454h-194.318v-194.318c0-11.291-9.163-20.454-20.454-20.454s-20.454 9.163-20.454 20.454v194.318h-194.318c-11.291 0-20.454 9.163-20.454 20.454s9.163 20.454 20.454 20.454h194.318v194.318c0 11.291 9.163 20.454 20.454 20.454z" p-id="1354"></path></svg>