<?xml version="1.0" standalone="no"?><!DOCTYPE svg PUBLIC "-//W3C//DTD SVG 1.1//EN" "http://www.w3.org/Graphics/SVG/1.1/DTD/svg11.dtd"><svg t="1588471923034" class="icon" viewBox="0 0 1024 1024" version="1.1" xmlns="http://www.w3.org/2000/svg" p-id="5147" xmlns:xlink="http://www.w3.org/1999/xlink" width="16" height="16"><defs><style type="text/css"></style></defs><path d="M674 350V128h-72v226a68.07 68.07 0 0 0 68 68h226v-72zM350 350H128v72h226a68.07 68.07 0 0 0 68-68V128h-72zM354 602H128v72h222v222h72V670a68.07 68.07 0 0 0-68-68zM602 670v226h72V674h222v-72H670a68.07 68.07 0 0 0-68 68z" p-id="5148"></path></svg>